<svg id="svg16" height="512" viewBox="0 0 64 64" width="512" xmlns="http://www.w3.org/2000/svg" xmlns:osb="http://www.openswatchbook.org/uri/2009/osb"><path id="rect816" d="m14.5 7c-4.1290542 0-7.5 3.3709458-7.5 7.5s3.3709458 7.5 7.5 7.5h39.5v32h-39.5c-2.5189458 0-4.5-1.9810542-4.5-4.5v-26a1.50015 1.50015 0 1 0 -3 0v26c0 4.1290542 3.3709458 7.5 7.5 7.5h41a1.50015 1.50015 0 0 0 1.5-1.5v-35a1.50015 1.50015 0 0 0 -1.5-1.5h-41c-2.5189458 0-4.5-1.9810542-4.5-4.5s1.9810542-4.5 4.5-4.5h33.5v5.5a1.50015 1.50015 0 1 0 3 0v-7a1.50015 1.50015 0 0 0 -1.5-1.5z" font-feature-settings="normal" font-variant-alternates="normal" font-variant-caps="normal" font-variant-ligatures="normal" font-variant-numeric="normal" font-variant-position="normal" isolation="auto" mix-blend-mode="normal" paint-order="fill markers stroke" shape-padding="0" solid-color="rgb(0,0,0)" text-decoration-color="rgb(0,0,0)" text-decoration-line="none" text-decoration-style="solid" text-indent="0" text-orientation="mixed" text-transform="none" white-space="normal"/><path id="path923" d="m32 42c-3.0766588 0-5.9356367.99883268-8.24804688 2.6875a1.50015 1.50015 0 1 0 1.76757813 2.421875c1.81838174-1.3278967 4.05044043-2.109375 6.48046875-2.109375 2.43002831 0 4.66208699.78147829 6.48046875 2.109375a1.50015 1.50015 0 1 0 1.76757813-2.421875c-2.31241019-1.68866733-5.17138809-2.6875-8.24804688-2.6875z" font-feature-settings="normal" font-variant-alternates="normal" font-variant-caps="normal" font-variant-ligatures="normal" font-variant-numeric="normal" font-variant-position="normal" isolation="auto" mix-blend-mode="normal" paint-order="fill markers stroke" shape-padding="0" solid-color="rgb(0,0,0)" text-decoration-color="rgb(0,0,0)" text-decoration-line="none" text-decoration-style="solid" text-indent="0" text-orientation="mixed" text-transform="none" white-space="normal"/><path id="path1192" d="m37.139917 31.172922a1.50015 1.50015 0 0 0 .0317646 2.1199393l.70710678.70710678-.70710678.70710678a1.50015 1.50015 0 1 0 2.1213203 2.1213203l.70710678-.70710678.70710678.70710678a1.50015 1.50015 0 1 0 2.1213204-2.1213203l-.70710679-.70710678.70710679-.70710678a1.50015 1.50015 0 1 0 -2.1213204-2.1213204l-.70710678.70710679-.70710678-.70710679a1.50015 1.50015 0 0 0 -2.1530849.001381z" font-feature-settings="normal" font-variant-alternates="normal" font-variant-caps="normal" font-variant-ligatures="normal" font-variant-numeric="normal" font-variant-position="normal" isolation="auto" mix-blend-mode="normal" paint-order="fill markers stroke" shape-padding="0" solid-color="rgb(0,0,0)" text-decoration-color="rgb(0,0,0)" text-decoration-line="none" text-decoration-style="solid" text-indent="0" text-orientation="mixed" text-transform="none" white-space="normal"/><path id="path1209" d="m21.139917 31.172922a1.50015 1.50015 0 0 0 .0317646 2.1199393l.70710678.70710678-.70710678.70710678a1.50015 1.50015 0 1 0 2.1213203 2.1213203l.70710678-.70710678.70710678.70710678a1.50015 1.50015 0 1 0 2.1213204-2.1213203l-.70710679-.70710678.70710679-.70710678a1.50015 1.50015 0 1 0 -2.1213204-2.1213204l-.70710678.70710679-.70710678-.70710679a1.50015 1.50015 0 0 0 -2.1530849.001381z" font-feature-settings="normal" font-variant-alternates="normal" font-variant-caps="normal" font-variant-ligatures="normal" font-variant-numeric="normal" font-variant-position="normal" isolation="auto" mix-blend-mode="normal" paint-order="fill markers stroke" shape-padding="0" solid-color="rgb(0,0,0)" text-decoration-color="rgb(0,0,0)" text-decoration-line="none" text-decoration-style="solid" text-indent="0" text-orientation="mixed" text-transform="none" white-space="normal"/></svg>