<svg id="Layer_1" enable-background="new 0 0 135 135" height="512" viewBox="0 0 135 135" width="512" xmlns="http://www.w3.org/2000/svg"><g><g><g><circle cx="67.5" cy="40.891" fill="#d9c8b4" r="27.518"/><circle cx="67.5" cy="40.891" fill="#a56f3f" r="17.608"/><g><path d="m67.4997406 56.9246712c-8.8411102 0-16.0330353-7.1926689-16.0330353-16.0336571s7.191925-16.0336552 16.0330353-16.0336552 16.0340271 7.1926708 16.0340271 16.0336552-7.1929169 16.0336571-16.0340271 16.0336571zm0-31.0481415c-8.2787781 0-15.0138664 6.7354622-15.0138664 15.0144844s6.7350883 15.0144844 15.0138664 15.0144844 15.0148544-6.7354584 15.0148544-15.0144844-6.736084-15.0144844-15.0148544-15.0144844z" fill="#965f32"/></g><g><path d="m67.4997406 54.4334755c-7.4666252 0-13.5418396-6.0750923-13.5418396-13.5424614s6.0752144-13.5424595 13.5418396-13.5424595c7.4676132 0 13.5428314 6.0750904 13.5428314 13.5424595s-6.0752182 13.5424614-13.5428314 13.5424614zm0-26.0657482c-6.9052849 0-12.5226669 5.6178799-12.5226669 12.5232868s5.617382 12.5232887 12.5226669 12.5232887 12.5236588-5.6178818 12.5236588-12.5232887-5.6183777-12.5232868-12.5236588-12.5232868z" fill="#965f32"/></g><g><path d="m67.4997406 51.8128929c-6.0224686 0-10.921257-4.8995361-10.921257-10.9218788s4.8987885-10.921875 10.921257-10.921875c6.0224609 0 10.9222488 4.8995361 10.9222488 10.921875s-4.8997879 10.9218788-10.9222488 10.9218788zm0-20.824583c-5.4601326 0-9.9020844 4.4423275-9.9020844 9.9027042s4.4419518 9.9027061 9.9020844 9.9027061 9.9030762-4.4423256 9.9030762-9.9027061-4.4429474-9.9027042-9.9030762-9.9027042z" fill="#965f32"/></g><path d="m67.5099411 16.1331959c-13.6978493 0-24.7659073 11.0685558-24.7659073 24.7666531 0 13.6562958 11.068058 24.7447586 24.7659073 24.7447586 13.6771927 0 24.7455063-11.0884628 24.7455063-24.7447586 0-13.6980973-11.0683136-24.7666531-24.7455063-24.7666531zm0 3.3023529c3.4854813 0 6.2984085 2.8335743 6.2984085 6.3190594s-2.8129272 6.2981567-6.2984085 6.2981567c-3.5061417 0-6.3188133-2.8126717-6.3188133-6.2981567s2.8126716-6.3190594 6.3188133-6.3190594zm-20.4650345 15.0029125c1.0395737-3.3232517 4.5862694-5.1774673 7.9087753-4.1184845 3.3225098 1.0400715 5.1774712 4.5862694 4.1174927 7.909523-1.0395737 3.3431587-4.5862694 5.1774712-7.9087791 4.1373978-3.322506-1.0599785-5.1772194-4.6061745-4.1174889-7.9284363zm16.9387398 22.4824791c-1.9977837 2.8534775-5.9316444 3.546196-8.7853737 1.5486603s-3.5466957-5.9308968-1.5489082-8.8052788c1.9975357-2.8534813 5.9313965-3.5471954 8.7851219-1.5486641 2.8537292 2.0174408 3.5466995 5.9518013 1.54916 8.8052826zm16.5717354.9982681c-2.7723694 2.119957-6.7266312 1.5904655-8.8465881-1.1823959-2.1197052-2.7509689-1.6101227-6.7261314 1.1619949-8.8460884 2.7721176-2.1199532 6.7266312-1.5894699 8.8463364 1.1624908 2.1199569 2.7718697 1.6103668 6.7261315-1.1617432 8.8659935zm3.322258-16.2858352c-3.2610474 1.202301-6.8893585-.4896812-8.0717545-3.7711334-1.2025528-3.2615471.4891815-6.8893566 3.7711334-8.0717545 3.2612915-1.2023029 6.8893509.4896793 8.0717545 3.7711334 1.2025528 3.2615433-.4891815 6.8893547-3.7711334 8.0717545z" fill="#44433f"/><path d="m73.2994308 40.9031944c0 3.2024155-2.5834808 5.7859001-5.7862244 5.7859001-3.2296829 0-5.8131638-2.5834846-5.8131638-5.7859001 0-3.230011 2.5834808-5.8134918 5.8131638-5.8134918 3.2027436 0 5.7862244 2.5834808 5.7862244 5.8134918z" fill="#bababa"/><path d="m71.4945831 40.8989029c0 2.2058296-1.7795105 3.9853401-3.9855652 3.9853401-2.224617 0-4.0041237-1.7795105-4.0041237-3.9853401 0-2.2248421 1.7795067-4.0043526 4.0041237-4.0043526 2.2060547 0 3.9855652 1.7795105 3.9855652 4.0043526z" fill="#a5a4a2"/></g><path d="m3.5 118.466h128v3.16h-128z" fill="#7a8490"/><g><path d="m10.821 86.823h113.358v31.643h-113.358z" fill="#92e0b9"/><g><g><path d="m91.045 86.745h22.787v31.722h-22.787z" fill="#ab5033"/></g><g><g><path d="m90.467 86.745h1.155v31.722h-1.155z" fill="#aceac9"/></g></g><g><g><path d="m113.255 86.745h1.155v31.722h-1.155z" fill="#aceac9"/></g></g><g><path d="m94.222 93.658h8.216v24.808h-8.216z" fill="#dbdbdb"/></g><g><path d="m102.439 93.658h8.216v24.808h-8.216z" fill="#dbdbdb"/></g><g><g><path d="m111.0013123 118.4662552h-.6947098v-24.4618607h-15.7368775v24.4618607h-.6947097v-25.1548767h17.126297z" fill="#2c2c34"/></g><g><path d="m102.092 93.658h.695v24.808h-.695z" fill="#2c2c34"/></g></g><g><g><path d="m103.799 105.035h.695v2.055h-.695z" fill="#2c2c34"/></g><g><path d="m100.382 105.035h.695v2.055h-.695z" fill="#2c2c34"/></g></g></g><g><g><path d="m21.168 86.745h22.787v31.722h-22.787z" fill="#ab5033"/></g><g><g><path d="m43.378 86.745h1.155v31.722h-1.155z" fill="#aceac9"/></g></g><g><g><path d="m20.591 86.745h1.155v31.722h-1.155z" fill="#aceac9"/></g></g><g><path d="m32.561 93.658h8.216v24.808h-8.216z" fill="#dbdbdb"/></g><g><path d="m24.345 93.658h8.216v24.808h-8.216z" fill="#dbdbdb"/></g><g><g><path d="m23.9986916 118.4662552h.6947059v-24.4618607h15.7368775v24.4618607h.6947059v-25.1548767h-17.1262893z" fill="#2c2c34"/></g><g><path d="m32.213 93.658h.695v24.808h-.695z" fill="#2c2c34"/></g></g><g><g><path d="m30.506 105.035h.695v2.055h-.695z" fill="#2c2c34"/></g><g><path d="m33.923 105.035h.695v2.055h-.695z" fill="#2c2c34"/></g></g></g><path d="m51.4145432 86.7587662v31.688034h-10.8085328l-29.7950754-29.7933883v-1.8495331z" fill="#2c2c34" opacity=".08"/><g><g><path d="m51.434 86.823h32.131v31.643h-32.131z" fill="#5e7cd3"/><path d="m62.3358231 106.45961v2.8942566h-6.4631538v-2.8942566c0-1.0975647.8897514-1.9873123 1.9873161-1.9873123h2.4885216c1.0975646 0 1.9873161.8897476 1.9873161 1.9873123z" fill="#4a6dc6"/><path d="m79.1273346 106.45961v2.8942566h-6.4631577v-2.8942566c0-1.0975647.8897552-1.9873123 1.9873199-1.9873123h2.4885178c1.0975647 0 1.98732.8897476 1.98732 1.9873123z" fill="#4a6dc6"/><path d="m51.434 110.147h32.131v8.319h-32.131z" fill="#f93"/><g fill="#fc3"><path d="m66.784 86.823h1.431v21.738h-1.431z"/><path d="m51.415 108.561h32.151v1.586h-32.151z"/></g></g><g><g><path d="m50.857 86.745h1.155v31.722h-1.155z" fill="#aceac9"/></g></g><g><g><path d="m82.988 86.745h1.155v31.722h-1.155z" fill="#aceac9"/></g></g></g><path d="m12.289 52.484h110.402v13.811h-110.402z" fill="#92e0b9"/><path d="m61.4849472 52.4836311v13.8106499h-37.8783531l-11.3177185-11.3160286v-2.4946213z" fill="#2c2c34" opacity=".08"/><path d="m9.794 49.479h115.392v3.004h-115.392z" fill="#aceac9"/><path d="m119.2266846 66.294281h-35.6149216l14.4123154-16.8150253h4.3881454z" fill="#2c2c34" opacity=".08"/><g><path d="m89.7841415 71.90728 11.3981018-21.9867363c.5571671-1.0747604.0072174-2.4240837-1.1454544-2.7940636-21.6911926-6.9623795-43.3823853-6.9623795-65.0735779 0-1.1526718.3699799-1.7026176 1.7193031-1.1454544 2.7940636l11.3981057 21.9867363z" fill="#e63936"/><g><g fill="#fc3"><path d="m71.3940506 55.4741478.9207611 5.371891-4.8150253-2.5327987-4.8339997 2.5327987.9399605-5.371891-3.9134712-3.7982597 5.3903885-.7868157 2.4171219-4.8717003 2.4171142 4.8717003 5.390625.7868157z"/><path d="m84.5516357 58.6323814.7228394 4.2171936-3.7800293-1.9883651-3.7949219 1.9883651.7379151-4.2171936-3.0722657-2.9818153 4.23172-.6176872 1.8975525-3.8245201 1.8975525 3.8245201 4.2319031.6176872z"/><path d="m56.5623627 58.6323814.7228431 4.2171936-3.7800293-1.9883651-3.7949256 1.9883651.7379188-4.2171936-3.0722656-2.9818153 4.2317161-.6176872 1.8975563-3.8245201 1.8975525 3.8245201 4.2318993.6176872z"/></g></g></g><path d="m10.821 86.823h113.358v2.733h-113.358z" fill="#2c2c34" opacity=".08"/><path d="m8.985 66.315h117.03v20.499h-117.03z" fill="#f93"/><g fill="#fc3"><g><path d="m10.358 65.649h2.818v3.882h-2.818z"/><path d="m10.358 83.599h2.818v3.882h-2.818z"/></g><g><path d="m15.205 65.649h2.818v3.882h-2.818z"/><path d="m15.205 83.599h2.818v3.882h-2.818z"/></g><g><path d="m20.051 65.649h2.818v3.882h-2.818z"/><path d="m20.051 83.599h2.818v3.882h-2.818z"/></g><g><path d="m24.897 65.649h2.818v3.882h-2.818z"/><path d="m24.897 83.599h2.818v3.882h-2.818z"/></g><g><path d="m29.744 65.649h2.818v3.882h-2.818z"/><path d="m29.744 83.599h2.818v3.882h-2.818z"/></g><g><path d="m34.59 65.649h2.818v3.882h-2.818z"/><path d="m34.59 83.599h2.818v3.882h-2.818z"/></g><g><path d="m39.436 65.649h2.818v3.882h-2.818z"/><path d="m39.436 83.599h2.818v3.882h-2.818z"/></g><g><path d="m44.283 65.649h2.818v3.882h-2.818z"/><path d="m44.283 83.599h2.818v3.882h-2.818z"/></g><g><path d="m49.129 65.649h2.818v3.882h-2.818z"/><path d="m49.129 83.599h2.818v3.882h-2.818z"/></g><g><path d="m53.975 65.649h2.818v3.882h-2.818z"/><path d="m53.975 83.599h2.818v3.882h-2.818z"/></g><g><path d="m58.822 65.649h2.818v3.882h-2.818z"/><path d="m58.822 83.599h2.818v3.882h-2.818z"/></g><g><path d="m63.668 65.649h2.818v3.882h-2.818z"/><path d="m63.668 83.599h2.818v3.882h-2.818z"/></g><g><path d="m68.514 65.649h2.818v3.882h-2.818z"/><path d="m68.514 83.599h2.818v3.882h-2.818z"/></g><g><path d="m73.361 65.649h2.818v3.882h-2.818z"/><path d="m73.361 83.599h2.818v3.882h-2.818z"/></g><g><path d="m78.207 65.649h2.818v3.882h-2.818z"/><path d="m78.207 83.599h2.818v3.882h-2.818z"/></g><g><path d="m83.053 65.649h2.818v3.882h-2.818z"/><path d="m83.053 83.599h2.818v3.882h-2.818z"/></g><g><path d="m87.9 65.649h2.818v3.882h-2.818z"/><path d="m87.9 83.599h2.818v3.882h-2.818z"/></g><g><path d="m92.746 65.649h2.818v3.882h-2.818z"/><path d="m92.746 83.599h2.818v3.882h-2.818z"/></g><g><path d="m97.592 65.649h2.818v3.882h-2.818z"/><path d="m97.592 83.599h2.818v3.882h-2.818z"/></g><g><path d="m102.439 65.649h2.818v3.882h-2.818z"/><path d="m102.439 83.599h2.818v3.882h-2.818z"/></g><g><path d="m107.285 65.649h2.818v3.882h-2.818z"/><path d="m107.285 83.599h2.818v3.882h-2.818z"/></g><g><path d="m112.131 65.649h2.818v3.882h-2.818z"/><path d="m112.131 83.599h2.818v3.882h-2.818z"/></g><g><path d="m116.978 65.649h2.818v3.882h-2.818z"/><path d="m116.978 83.599h2.818v3.882h-2.818z"/></g><g><path d="m121.824 65.649h2.818v3.882h-2.818z"/><path d="m121.824 83.599h2.818v3.882h-2.818z"/></g></g><g><g fill="#f9f6c9"><path d="m45.6979828 79.6573639c.5097504 0 .9473267-.085434 1.3149796-.2565689.3676491-.1711426.751091-.4446259 1.150322-.8201675l.9518356.9766464c-.9247704 1.0265503-2.0502815 1.5396805-3.3742828 1.5396805-1.321743 0-2.4201889-.4254456-3.2908287-1.2769089-.8728905-.8511887-1.3082085-1.9279251-1.3082085-3.2299347 0-1.302002.4443398-2.3869171 1.3330193-3.2550201.8886833-.8678131 2.0096855-1.3020096 3.3675194-1.3020096 1.3555756 0 2.487854.5007324 3.3990936 1.5024719l-.9405594 1.0265503c-.4172745-.4006348-.8097382-.6803284-1.1819-.8387756-.3721657-.1584549-.8074837-.2379608-1.3082123-.2379608-.8841705 0-1.6284981.2858887-2.2284698.857666-.5999756.5717773-.9022141 1.3020096-.9022141 2.1906891 0 .8889694.299984 1.6318817.8954468 2.2284698.5977172.596878 1.3036994.8951721 2.1224593.8951721z"/><path d="m50.9172935 72.2459488h1.4773788v8.7509232h-1.4773788z"/><path d="m61.3852386 72.2459488h1.4773788v8.7509232h-1.6036873l-4.9576683-6.3848648v6.3848648h-1.4773788v-8.7509232h1.4773788l5.0839767 6.5351334v-6.5351334z"/><path d="m71.4381638 72.2459488v1.3896942h-4.6712112v2.3158722h4.1952972v1.3146973h-4.1952972v2.3409653h4.8200836v1.3896942h-6.2974625v-8.7509232z"/><path d="m74.9545517 80.9968719h-1.4773788v-8.7509232h2.3051605l2.6412277 5.4958954 2.6412354-5.4958954h2.291626v8.7509232h-1.4773788v-6.8354034l-3.0562515 6.0716171h-.8255234l-3.042717-6.0716171v6.8354034z"/><path d="m87.0239258 79.0063553-.8774033 1.9905167h-1.576622l3.8569717-8.7509232h1.5766144l3.8547134 8.7509232h-1.576622l-.875145-1.9905167zm3.780281-1.3646011-1.5901566-3.6054688-1.5901489 3.6054688z"/></g></g></g></g></g></svg>